# xmcd
#
# Track frame offsets: 
#        150
#        3793
#        20692
#        42409
#        67335
#        78059
#        96242
#        116574
#        133053
#        159575
#
# Disc length: 2343 seconds
#
# Revision: 8
# Processed by: cddbd v1.5.2PL0 Copyright (c) Steve Scherf et al.
# Submitted via: ExactAudioCopyFreeDBPlugin 1.0
#
DISCID=7e09250a
DTITLE=Tumbleweed Town - Driftin Without Aim
DYEAR=2006
DGENRE=Country
TTITLE0=Dirt And Gold
TTITLE1=Flowing Like A Wild River
TTITLE2=Who Would Have Thought
TTITLE3=Burning With Invisible Flames
TTITLE4=Perhaps It Is Fading
TTITLE5=Rocking Horses
TTITLE6=A Song To An Old Man
TTITLE7=Leaving Leavers
TTITLE8=Take Me Higher
TTITLE9=The Mill Of Life
EXTD=
EXTT0=
EXTT1=
EXTT2=
EXTT3=
EXTT4=
EXTT5=
EXTT6=
EXTT7=
EXTT8=
EXTT9=
PLAYORDER=
